<?xml version="1.0" encoding="UTF-8" standalone="no"?>
<svg
   xmlns:dc="http://purl.org/dc/elements/1.1/"
   xmlns:cc="http://creativecommons.org/ns#"
   xmlns:rdf="http://www.w3.org/1999/02/22-rdf-syntax-ns#"
   xmlns:svg="http://www.w3.org/2000/svg"
   xmlns="http://www.w3.org/2000/svg"
   xmlns:sodipodi="http://sodipodi.sourceforge.net/DTD/sodipodi-0.dtd"
   xmlns:inkscape="http://www.inkscape.org/namespaces/inkscape"
   version="1.1"
   x="0px"
   y="0px"
   viewBox="0 0 89.634956 54.230499"
   enable-background="new 0 0 100 100"
   xml:space="preserve"
   id="svg2"
   inkscape:version="0.91 r13725"
   sodipodi:docname="bike.svg"
   width="89.634956"
   height="54.230499"><metadata
     id="metadata14"><rdf:RDF><cc:Work
         rdf:about=""><dc:format>image/svg+xml</dc:format><dc:type
           rdf:resource="http://purl.org/dc/dcmitype/StillImage" /><dc:title></dc:title></cc:Work></rdf:RDF></metadata><defs
     id="defs12" /><sodipodi:namedview
     pagecolor="#ffffff"
     bordercolor="#666666"
     borderopacity="1"
     objecttolerance="10"
     gridtolerance="10"
     guidetolerance="10"
     inkscape:pageopacity="0"
     inkscape:pageshadow="2"
     inkscape:window-width="640"
     inkscape:window-height="480"
     id="namedview10"
     showgrid="false"
     fit-margin-top="0"
     fit-margin-left="0"
     fit-margin-right="0"
     fit-margin-bottom="0"
     inkscape:zoom="1.888"
     inkscape:cx="44.974048"
     inkscape:cy="15.312906"
     inkscape:window-x="178"
     inkscape:window-y="90"
     inkscape:window-maximized="0"
     inkscape:current-layer="svg2" /><path
     d="m 70.677048,17.691593 c -1.199,0.045 -2.36,0.213 -3.484,0.476 -1.525,-5.262 -2.719,-9.6329998 -2.745,-9.7299998 -0.028,-0.106 -0.086,-0.199 -0.135,-0.292 l -1.043,-4.04 c 1.869,-0.747 4.449,-1.418 5.879,-0.841 0.486,0.195 0.786,0.52 0.975,1.052 0.31,0.87 0.306,1.597 -0.013,2.221 -0.565,1.118 -2.057,1.775 -2.584,1.933 l 0.007,-0.003 c -0.808,0.235 -1.273,1.078 -1.039,1.8869998 0.232,0.806 1.078,1.273 1.886,1.04 0.317,-0.094 3.165,-0.977 4.437,-3.4559998 0.706,-1.374 0.767,-2.979 0.178,-4.64 -0.479,-1.35 -1.415,-2.33899999 -2.712,-2.85999999 -3.574,-1.438 -8.896,1.13499999 -9.49,1.43499999 -0.642,0.323 -0.974,1.047 -0.793,1.741 l 0.972,3.776 -25.941,0.969 -1.01,-3.231 5.802,-1.003 0,-0.012 c 0.734,-0.068 1.294,-0.691 1.265,-1.435 -0.028,-0.727 -0.604,-1.295 -1.317,-1.335 l 0,-0.015 -9.361,-1.23899999 c -0.252,-0.06 -0.512,-0.098 -0.781,-0.088 -1.611,0.061 -2.865,1.41299999 -2.807,3.02599999 0.059,1.611 1.416,2.869 3.025,2.806 0.1,-0.003 0.196,-0.026 0.293,-0.04 l 0,0.004 0.111,-0.019 c 0.072,-0.014 0.144,-0.02 0.217,-0.038 l 0.525,-0.09 1.153,3.688 -5.953,10.1149998 c -2.598,-1.258 -5.524,-1.921 -8.603,-1.806 -4.878,0.183 -9.3920002,2.253 -12.7110002,5.831 -3.322,3.579 -5.04899997,8.237 -4.86699997,13.113 0.378,10.07 8.87499997,17.957 18.94500017,17.58 8.14,-0.304 14.844,-5.917 16.921,-13.375 l 4.23,0.801 c 0.765,0.329 1.618,0.503 2.516,0.471 l -0.044,4.341 -2.521,-0.054 c -0.562,-0.011 -1.025,0.432 -1.037,0.995 -0.014,0.56 0.433,1.024 0.994,1.036 l 5.762,0.123 c 0.561,0.013 1.026,-0.432 1.036,-0.992 0.013,-0.561 -0.434,-1.024 -0.992,-1.039 l -2.226,-0.047 0.044,-4.49 c 2.583,-0.55 4.474,-2.775 4.376,-5.366 -0.035,-0.923 -0.318,-1.782 -0.786,-2.52 l 16.155,-18.098 c 0.284,0.994 0.591,2.062 0.909,3.165 -6.806,2.867 -11.49,9.71 -11.198,17.515 0.379,10.07 8.876,17.956 18.947,17.58 10.069,-0.378 17.954,-8.877 17.578,-18.945 -0.377,-10.07 -8.876,-17.955 -18.945,-17.581 z m -37.307,-4.43 5.824,18.626 -3.038,0.351 c -0.948,-4.633 -3.639,-8.601 -7.346,-11.227 l 4.56,-7.75 z m 3.156,21.841 c -0.028,-0.629 -0.088,-1.251 -0.179,-1.864 l 2.232,-0.258 c -0.646,0.591 -1.144,1.325 -1.433,2.148 l -0.62,-0.026 z m -4.411,-2.397 -10.929,1.262 5.561,-9.453 c 2.651,1.976 4.596,4.849 5.368,8.191 z m -7.77,1.919 7.962,-0.918 c 0.063,0.404 0.104,0.821 0.132,1.237 l -8.094,-0.319 z m 7.986,3.362 c -0.053,0.36 -0.127,0.714 -0.207,1.068 l -7.178,-1.357 7.385,0.289 z m 9.931,-6.49 -1.602,-5.13 2.119,0.046 -0.051,5.089 c -0.153,-0.006 -0.31,-0.011 -0.466,-0.005 z m -13.569,14.08 c -2.58,2.784 -6.092,4.396 -9.888,4.537 -7.83,0.293 -14.4400002,-5.841 -14.7330002,-13.672 -0.143,-3.795 1.203,-7.418 3.785,-10.199 2.5820002,-2.784 6.0940002,-4.395 9.8860002,-4.538 2.272,-0.085 4.438,0.386 6.379,1.268 l -7.159,12.164 c -0.271,0.463 -0.281,1.032 -0.023,1.501 0.258,0.472 0.741,0.773 1.277,0.794 l 0.06,10e-4 -0.006,0.032 13.596,2.574 c -0.617,2.037 -1.679,3.931 -3.174,5.538 z m 7.698,-7.43 0.657,0.026 c 0.213,0.756 0.6,1.443 1.113,2.021 l -2.054,-0.388 c 0.119,-0.545 0.215,-1.096 0.284,-1.659 z m 25.643,-25.25 -17.094,19.147 c -0.374,-0.176 -0.777,-0.31 -1.196,-0.404 l 0.049,-5.206 2.349,0.05 c 0.561,0.014 1.024,-0.432 1.037,-0.993 0.011,-0.561 -0.434,-1.025 -0.993,-1.039 l -5.762,-0.121 c -0.133,-0.003 -0.262,0.024 -0.382,0.068 l -4.07,-13.027 25.859,-0.967 c 0.154,0.561 0.36,1.304 0.605,2.178 -0.147,0.083 -0.284,0.183 -0.402,0.314 z m 19.746,32.726 c -2.582,2.781 -6.093,4.395 -9.888,4.536 -7.832,0.293 -14.442,-5.841 -14.735,-13.672 -0.222,-5.909 3.219,-11.122 8.285,-13.451 1.634,5.48 3.404,11.061 4.531,13.548 0.346,0.766 1.25,1.104 2.016,0.757 0.767,-0.346 1.104,-1.25 0.758,-2.014 -1.066,-2.354 -2.8,-7.84 -4.409,-13.249 0.808,-0.176 1.637,-0.294 2.49,-0.327 7.833,-0.292 14.441,5.841 14.735,13.672 0.14,3.794 -1.203,7.415 -3.783,10.2 z"
     id="path4"
     inkscape:connector-curvature="0" /></svg>