<?xml version="1.0" encoding="UTF-8" standalone="no"?>
<svg
   xmlns:dc="http://purl.org/dc/elements/1.1/"
   xmlns:cc="http://creativecommons.org/ns#"
   xmlns:rdf="http://www.w3.org/1999/02/22-rdf-syntax-ns#"
   xmlns:svg="http://www.w3.org/2000/svg"
   xmlns="http://www.w3.org/2000/svg"
   xmlns:sodipodi="http://sodipodi.sourceforge.net/DTD/sodipodi-0.dtd"
   xmlns:inkscape="http://www.inkscape.org/namespaces/inkscape"
   version="1.1"
   x="0px"
   y="0px"
   viewBox="0 0 84.752998 84.758003"
   enable-background="new 0 0 100 100"
   xml:space="preserve"
   id="svg2"
   inkscape:version="0.91 r13725"
   sodipodi:docname="chainring.svg"
   width="84.752998"
   height="84.758003"><metadata
     id="metadata14"><rdf:RDF><cc:Work
         rdf:about=""><dc:format>image/svg+xml</dc:format><dc:type
           rdf:resource="http://purl.org/dc/dcmitype/StillImage" /><dc:title></dc:title></cc:Work></rdf:RDF></metadata><defs
     id="defs12" /><sodipodi:namedview
     pagecolor="#ffffff"
     bordercolor="#666666"
     borderopacity="1"
     objecttolerance="10"
     gridtolerance="10"
     guidetolerance="10"
     inkscape:pageopacity="0"
     inkscape:pageshadow="2"
     inkscape:window-width="1857"
     inkscape:window-height="1057"
     id="namedview10"
     showgrid="false"
     fit-margin-top="0"
     fit-margin-left="0"
     fit-margin-right="0"
     fit-margin-bottom="0"
     inkscape:zoom="1.888"
     inkscape:cx="40.663"
     inkscape:cy="31.231"
     inkscape:window-x="55"
     inkscape:window-y="-8"
     inkscape:window-maximized="1"
     inkscape:current-layer="svg2" /><path
     d="m 78.908,44.328 c 0.037,-0.648 0.05,-1.295 0.05,-1.946 0,-0.651 -0.013,-1.298 -0.05,-1.946 l 5.845,-2.693 -0.322,-2.023 -0.316,-2.021 -6.384,-0.753 c -0.335,-1.255 -0.737,-2.488 -1.202,-3.709 l 4.717,-4.36 -0.93,-1.825 -0.93,-1.828 -6.304,1.258 c -0.706,-1.087 -1.469,-2.138 -2.293,-3.148 l 3.148,-5.612 -1.45,-1.447 -1.451,-1.45 -5.608,3.146 C 64.417,13.15 63.364,12.384 62.28,11.678 L 63.538,5.375 61.71,4.445 59.881,3.512 55.518,8.235 C 54.303,7.767 53.064,7.364 51.818,7.032 L 51.062,0.648 49.041,0.326 47.013,0 44.324,5.848 c -0.65,-0.034 -1.295,-0.053 -1.946,-0.053 -0.65,0 -1.302,0.019 -1.946,0.053 L 37.737,0 35.716,0.322 33.69,0.644 32.94,7.028 C 31.688,7.36 30.455,7.763 29.234,8.234 l -4.363,-4.726 -1.822,0.933 -1.829,0.93 1.259,6.307 c -1.091,0.703 -2.139,1.469 -3.148,2.29 l -5.615,-3.146 -1.444,1.45 -1.45,1.447 3.142,5.612 c -0.824,1.01 -1.586,2.061 -2.293,3.148 l -6.304,-1.255 -0.93,1.822 -0.93,1.825 4.724,4.363 C 7.759,30.455 7.363,31.689 7.028,32.941 L 0.638,33.697 0.322,35.718 0,37.741 5.845,40.434 c -0.031,0.648 -0.05,1.295 -0.05,1.946 0,0.651 0.019,1.298 0.05,1.943 L 0,47.019 l 0.322,2.021 0.316,2.024 6.39,0.756 c 0.335,1.252 0.731,2.485 1.203,3.704 l -4.724,4.366 0.93,1.822 0.93,1.825 6.31,-1.255 c 0.707,1.088 1.47,2.138 2.287,3.148 l -3.142,5.609 1.45,1.45 1.444,1.447 5.615,-3.142 c 1.01,0.821 2.058,1.583 3.148,2.29 l -1.259,6.306 1.829,0.93 1.822,0.933 4.363,-4.726 c 1.221,0.468 2.454,0.871 3.706,1.203 l 0.75,6.387 2.026,0.319 2.021,0.322 2.695,-5.848 c 0.645,0.034 1.296,0.053 1.946,0.053 0.651,0 1.296,-0.019 1.946,-0.053 l 2.689,5.848 2.027,-0.322 2.021,-0.319 0.756,-6.387 c 1.246,-0.332 2.485,-0.735 3.7,-1.203 l 4.363,4.726 1.829,-0.933 1.828,-0.93 -1.258,-6.306 c 1.084,-0.707 2.138,-1.469 3.142,-2.29 l 5.615,3.145 1.451,-1.45 1.45,-1.45 -3.148,-5.609 c 0.824,-1.01 1.587,-2.061 2.293,-3.148 l 6.304,1.255 0.93,-1.825 0.93,-1.825 -4.723,-4.363 c 0.471,-1.218 0.873,-2.452 1.208,-3.704 l 6.384,-0.756 0.316,-2.024 0.322,-2.023 -5.845,-2.689 z M 52.387,14.057 c 4.097,1.447 7.946,3.809 11.225,7.087 3.279,3.278 5.641,7.127 7.085,11.228 L 49.753,37.988 C 49.394,37.39 48.96,36.825 48.445,36.311 47.93,35.796 47.366,35.363 46.771,35.006 l 5.616,-20.949 z m -4.519,-1.202 -5.615,20.943 c -1.4,0.021 -2.801,0.384 -4.065,1.091 L 22.853,19.555 c 7.091,-6.074 16.338,-8.305 25.015,-6.7 z M 12.85,47.874 c -1.604,-8.677 0.626,-17.925 6.7,-25.012 l 15.334,15.331 c -0.707,1.265 -1.072,2.662 -1.091,4.066 L 12.85,47.874 Z m 19.517,22.83 C 28.264,69.257 24.415,66.895 21.137,63.617 17.859,60.339 15.496,56.49 14.052,52.392 l 20.95,-5.615 c 0.353,0.598 0.787,1.162 1.301,1.673 0.515,0.515 1.079,0.948 1.674,1.308 l -5.61,20.946 z m 4.519,1.205 5.609,-20.946 c 1.406,-0.019 2.808,-0.381 4.065,-1.087 L 61.894,65.207 C 54.81,71.283 45.563,73.515 36.886,71.909 Z M 65.204,61.902 49.87,46.569 c 0.707,-1.261 1.066,-2.662 1.085,-4.066 l 20.949,-5.616 c 1.606,8.681 -0.626,17.925 -6.7,25.015 z"
     id="path4"
     inkscape:connector-curvature="0" /></svg>