<svg xmlns="http://www.w3.org/2000/svg" xmlns:xlink="http://www.w3.org/1999/xlink" version="1.1" x="0px" y="0px" viewBox="0 0 100 125" enable-background="new 0 0 100 100" xml:space="preserve"><g><rect x="-192" width="185" height="99"/><rect y="-36" width="100" height="30"/><text transform="matrix(1 0 0 1 66 -19.5)" fill="#000000" font-family="'Helvetica'" font-size="2.4">http://thenounproject.com</text><text transform="matrix(1 0 0 1 7.166 -24.5)"><tspan x="0" y="0" fill="#000000" font-family="'Helvetica-Bold'" font-size="6.1578">The Noun Project</tspan><tspan x="1.12" y="4.8" fill="#000000" font-family="'Helvetica-Bold'" font-size="4">Icon Template</tspan></text><text transform="matrix(1 0 0 1 -178.5 10.5)" fill="#000000" font-family="'Helvetica-Bold'" font-size="6.1578">Reminders</text><line fill="#000000" stroke="#FFFFFF" stroke-miterlimit="10" x1="8" y1="-14.5" x2="18" y2="-14.5"/><line fill="#000000" stroke="#FFFFFF" stroke-miterlimit="10" x1="-179" y1="16.5" x2="-162" y2="16.5"/><g><g><g><rect x="-170.802" y="31.318" fill="#000000" width="8.721" height="8.642"/><path fill="#000000" d="M-164.455,42.312h4.747v-4.703h-4.747V42.312z M-159.266,42.749h-5.63V37.17h5.63V42.749      L-159.266,42.749z M-166.221,44.062h8.279v-8.203h-8.279V44.062L-166.221,44.062z M-157.5,44.5h-9.163v-9.079h9.163V44.5      L-157.5,44.5z"/><polygon fill="#000000" points="-166.149,44.133 -166.292,43.991 -158.013,35.787 -157.871,35.929     "/></g></g></g><rect x="-179" y="58" fill="none" width="35" height="32.5"/><text transform="matrix(1 0 0 1 -179 60.1572)"><tspan x="0" y="0" fill="#000000" font-family="'Helvetica-Bold'" font-size="3">Strokes</tspan><tspan x="0" y="5" fill="#000000" font-family="'Helvetica'" font-size="2.4">Try to keep strokes at 4px</tspan><tspan x="0" y="10" fill="#000000" font-family="'Helvetica'" font-size="2.4">Minimum stroke weight is 2px</tspan><tspan x="0" y="14.5" fill="#000000" font-family="'Helvetica'" font-size="2.4">For thicker strokes use even </tspan><tspan x="0" y="17.5" fill="#000000" font-family="'Helvetica'" font-size="2.4">numbers: 6px, 8px etc.</tspan><tspan x="0" y="22" fill="#000000" font-family="'Helvetica-Bold'" font-size="2.4">Remember to expand strokes </tspan><tspan x="0" y="25" fill="#000000" font-family="'Helvetica-Bold'" font-size="2.4">before saving as an SVG </tspan></text><rect x="-136.5" y="58" fill="none" width="35" height="32.5"/><text transform="matrix(1 0 0 1 -136.5 60.1572)"><tspan x="0" y="0" fill="#000000" font-family="'Helvetica-Bold'" font-size="3">Size</tspan><tspan x="0" y="5" fill="#000000" font-family="'Helvetica'" font-size="2.4">Cannot be wider or taller than </tspan><tspan x="0" y="8.5" fill="#000000" font-family="'Helvetica'" font-size="2.4">100px (artboard size)</tspan><tspan x="0" y="13.5" fill="#000000" font-family="'Helvetica'" font-size="2.4">Scale your icon to fill as much of </tspan><tspan x="0" y="16.5" fill="#000000" font-family="'Helvetica'" font-size="2.4">the artboard as possible</tspan></text><rect x="-94" y="58" fill="none" width="35" height="32.5"/><text transform="matrix(1 0 0 1 -94 60.1572)"><tspan x="0" y="0" fill="#000000" font-family="'Helvetica-Bold'" font-size="3">Ungroup</tspan><tspan x="0" y="5" fill="#000000" font-family="'Helvetica'" font-size="2.4">If your design has more than one </tspan><tspan x="0" y="8" fill="#000000" font-family="'Helvetica'" font-size="2.4">shape, make sure to ungroup</tspan></text><rect x="-50" y="58" fill="none" width="35" height="32.5"/><text transform="matrix(1 0 0 1 -50 60.1572)"><tspan x="0" y="0" fill="#000000" font-family="'Helvetica-Bold'" font-size="3">Save as</tspan><tspan x="0" y="5" fill="#000000" font-family="'Helvetica'" font-size="2.4">Save as .SVG and make sure </tspan><tspan x="0" y="8" fill="#000000" font-family="'Helvetica'" font-size="2.4">“Use Artboards” is checked</tspan></text><text transform="matrix(1.0074 0 0 1 -125.542 30.5933)" fill="#000000" font-family="'Helvetica'" font-size="2.5731">100px</text><text transform="matrix(1.0074 0 0 1 -41 39)" fill="#000000" font-family="'Helvetica-Bold'" font-size="5.1462">.SVG</text><rect x="-126.514" y="34.815" fill="#000000" width="10.261" height="10.185"/><rect x="-126.477" y="31.766" fill="#000000" width="0.522" height="2.337"/><rect x="-116.812" y="31.766" fill="#000000" width="0.523" height="2.337"/><rect x="-127" y="32.337" fill="#000000" width="11.233" height="0.572"/><g><rect x="-83.805" y="33.844" fill="#000000" width="10.305" height="10.156"/><rect x="-76.809" y="28.707" fill="#000000" width="3.308" height="3.261"/></g><rect x="-178.5" y="22.5" fill="#000000" stroke="#FFFFFF" stroke-miterlimit="10" width="30" height="30"/><rect x="-136.5" y="22.5" fill="#000000" stroke="#FFFFFF" stroke-miterlimit="10" width="30" height="30"/><rect x="-93.5" y="22.5" fill="#000000" stroke="#FFFFFF" stroke-miterlimit="10" width="30" height="30"/><rect x="-49.5" y="22.5" fill="#000000" stroke="#FFFFFF" stroke-miterlimit="10" width="30" height="30"/></g><g><g><path d="M81.859,63.57c-0.166-0.988-1.154-1.974-0.203-2.961c0.984-1.154,1.973,0.29,2.959-0.601    c-0.496-0.987-1.42-1.97-0.6-2.959c0.918-0.956,1.842-0.039,2.762-0.794c-0.365-1.055-1.816-2.102-0.797-3.158    c0.852-0.824,1.727-0.186,2.564-0.994c-1.057-1.05-2.014-2.101-1.193-3.155c0.721-0.989,1.447-0.3,2.166-0.994    c-0.412-1.199-2.289-1.689-1.584-3.151c0.721-0.859,1.443-0.534,2.164-1.389c-0.725-0.853-1.449-0.753-2.17-1.771    c0.227-0.331-0.006-0.657,0.191-0.987c0.623-0.958,1.758-1.174,1.773-1.781c-0.793-0.885-1.582-0.357-2.375-1.572    c-0.166-0.855,0.918-1.714,1.77-2.572c-0.922-1.183-1.842-0.456-2.766-1.571c-0.201-0.988,0.949-1.978,1.375-2.965    c-0.922-0.721-1.844,0.172-2.768-1.179c-0.33-0.851,0.127-1.71,0.979-2.567c-1.055-1.279-2.104,0.399-3.158-1.176    c-0.76-0.987,1.115-1.978,0.189-2.962c-0.922-0.129-1.844,0.629-2.764-0.387c-0.713-1.001,0.881-1.977-0.205-2.96    c-0.92,0.298-1.84,0.893-2.764,0.007c-0.791-0.92,0.324-1.844-0.4-2.762c-0.986-0.098-1.99,1.173-2.963,0.205    c-0.955-0.919-0.037-1.841-0.797-2.761c-0.854,0.165-1.705,1.548-2.562,0.991c-1.451-0.983-0.631-1.972-1.389-2.957    c-1.051,1.055-2.1,1.748-3.156,1.192c-0.725-0.787-0.234-1.578-1.189-2.364c-0.787,0.725-1.574,1.878-2.365,1.583    c-1.268-0.144-1.09-1.608-1.98-2.362c-0.822,0.791-1.193,2.289-2.363,1.979c-1.086-0.063-1.139-1.297-1.979-1.968    c-0.822,0.134-0.621,1.614-1.967,2.374c-1.15-0.229-1.549-0.919-2.373-1.97c-0.97,0.382-0.508,1.236-0.59,1.385    c-0.295,0.459-0.821,0.692-1.378,1.384c-0.79-0.294-1.581-0.62-2.371-1.574c-0.954,0.925-0.324,1.844-1.176,2.768    c-0.463-0.296-0.941,0.611-1.386-0.194c-0.442,0.412-0.92-0.754-1.383-0.983c-1.017,1.055-0.192,2.107-1.175,3.16    c-0.264-0.263-0.528,0.167-0.792,0.002c-0.788,0.497-1.582-1.476-2.372-0.388c0.021,0.904,0.404,1.842-0.383,2.765    c-0.921,0.364-1.845-0.096-2.765-0.387c-0.742,0.445-0.016,1.1,0.005,1.577c0.015,0.51,0.2,0.988-0.393,1.582    c-0.986,0.89-1.975-0.294-2.959,0.204c0.1,1.054,1.022,2.103,0.399,3.156c-1.048,0.759-2.104-0.323-3.155,0.799    c1.023,0.917,1.484,1.839,0.797,2.761c-0.9,1.107-1.842,0.07-2.759,1.195c1.121,0.98,1.748,1.967,0.994,2.954    c-0.754,0.859-2.219,0.09-2.365,1.191c0.89,0.852,1.979,1.706,1.389,2.564c-0.787,1.219-1.579,0.694-2.364,1.584    c0.889,0.985,2.471,1.966,1.783,2.954c-0.67,1.041-1.906,0.696-1.971,1.585c0.725,0.623,1.45,0.82,2.175,1.771    c0.185,0.906-1.079,2.01-1.965,2.374c0.875,1.132,1.71,0.488,2.57,1.769c-0.164,0.526-0.097,1.054-0.393,1.581    c-0.522,0.856-1.198,0.479-1.181,1.187c0.86,1.017,1.714,0.095,2.57,1.375c0.562,0.987-0.719,1.976-0.979,2.962    c0.939,0.741,2.663-0.268,2.964,1.377c0.821-0.792,0.883-1.582,1.967-2.375c-0.699-3.157-2.942-6.308-1.997-9.47    c0.771-0.279,1.462-0.413,1.972-0.398c0.281,0.017,0.512,0.377,0.792,0.392c0.476,0.016,0.95-0.232,1.381-0.199    c0.543,0.048,1.003,0.343,1.578,0.389c0.184,0.017,0.414-0.213,0.593-0.199c0.297,0,0.493,0.36,0.79,0.394    c0.511,0.047,1.038-0.053,1.579-0.004c0.956,0.096,2.171-0.201,2.962,0.585c-1.97,1.747-4.153,4.337-5.314,5.738    c-0.396,0.459-0.985,0.923-1.376,1.386c-1.103,1.3-2.083,2.947-3.149,4.35c-0.394,0.494-0.855,0.691-1.181,1.187    c-0.213,0.312-0.113,0.443-0.393,0.792c-0.807,0.938-1.394,1.661-1.773,2.174c-0.359,0.495-0.965,0.874-1.377,1.385    c-0.245,0.313-0.181,0.544-0.592,0.989c-1.228,1.366-2.607,2.885-3.343,3.758c-3.166,3.774-7.383,7.42-10.633,10.687    c-1.246,1.254-2.871,2.523-3.74,3.762c-0.541,0.771-0.898,2.057-0.982,2.569c-0.096,0.723-0.11,1.1,0.004,1.576    c0.167,0.657,0.3,1.217,0.596,1.774c0.612,1.168,2.098,2.644,2.97,2.56c0.099,0,0.297,0.36,0.394,0.395    c0.051,0.015,0.166-0.199,0.197-0.198c0.116-0.018,0.282,0.378,0.397,0.394c0.459,0.097,2.548-0.221,2.566-0.203    c0.213-0.183,0.312,0.048,0.393-0.004c1.659-0.841,3.085-2.835,4.726-4.352c0.331-0.297,0.789-0.462,1.185-0.796    c4.004-3.396,7.744-8.538,11.813-11.872c1.279-1.055,3.363-2.754,4.333-3.563c0.526-0.427,0.834-0.938,1.377-1.384    c0.788-0.658,1.919-1.271,2.759-1.981c0.493-0.429,0.706-0.841,1.181-1.188c0.558-0.396,1.398-0.742,1.972-1.188    c0.524-0.397,0.822-0.956,1.377-1.385c0.347-0.251,0.526-0.201,0.985-0.597c1.196-1.071,2.148-2.29,3.346-3.364    c0.379-0.344,0.592-0.293,0.986-0.594c0.574-0.447,0.9-1.336,1.773-1.386c0.299,0.725-0.014,1.562,0.006,1.975    c0.016,0.279,0.377,0.509,0.396,0.787c0.035,0.461-0.213,0.974-0.193,1.383c0.033,0.591,0.363,0.987,0.398,1.578    c0.035,0.429-0.229,0.957-0.195,1.382c0.053,0.609,0.383,1.002,0.398,1.577c0.002,0.953-0.012,2.124-0.582,2.965    c-0.332-0.232-0.658,0.197-0.988,0.199c-0.33-0.001-0.838-0.346-1.186-0.392c-0.129-0.034-0.197,0.032-0.395,0    c-0.709-0.147-0.84-0.245-1.381-0.193c-0.115,0.017-0.675-0.378-0.792-0.393c-1.481-0.327-2.633-0.948-3.95-1.57    c-0.655,1.219-2.364,1.223-2.363,2.374c0.263-0.198,0.525,0.098,0.792,0.396c-0.36,0.395,0.527,0.786,0.001,1.183    c0.396,0.396-0.293,0.79,0.398,1.184c1.117-0.496,2.232-1.946,3.352-0.995c0.53,0.854,0.136,1.709,0.995,2.563    c0.786-0.728,1.574-1.879,2.365-1.586c1.545,0.062,0.928,2.301,1.98,2.363c0.787-0.659,1.572-1.911,2.361-1.979    c0.988,0.789,1.389,1.577,1.98,2.363c0.854-0.726,0.756-1.448,1.773-2.174c0.854-0.168,1.711,0.916,2.568,1.771    c1.068-0.153,0.324-1.615,1.574-2.375c0.197,0.098,0.393,0.065,0.592-0.199c0.727,0.328,1.449,0.984,2.174,1.772    c1.115-0.925,0.127-1.843,1.57-2.768c0.199,0.098,0.396,0.063,0.594-0.199c0.725,0.195,1.451,1.28,2.176,1.375    c0.621-0.99,0.094-1.974,0.979-2.963c0.984-0.033,1.977,0.423,2.965,0.979c0.752-1.053-0.633-2.104,0.779-3.16    c0.986-0.661,1.979,0.884,2.965,0.192c0.127-0.925-0.631-1.843,0.385-2.765C79.885,62.882,80.859,64.049,81.859,63.57z     M58.457,18.625c1.084,0.326,1.123,1.971,0.598,2.564c-0.887,1.021-1.875,0.564-2.371,0.004c-0.939-1.031-0.137-2.861,1.576-2.371    C58.309,18.839,58.406,18.607,58.457,18.625z M35.622,43.553c-0.395-0.395-0.792-0.787-1.186-1.18    c0.064-0.463,0.26-0.925,0.192-1.382c0.969-0.612,1.842-0.959,2.565-0.207c0.562,0.593,0.218,1.367,0.205,2.173    C36.805,43.188,36.215,43.517,35.622,43.553z M48.241,37.994c-0.595-0.295-0.674,0.313-1.184,0.396    c-0.543,0.087-1.448-0.293-2.17-0.192c-0.115,0.018-0.28,0.414-0.395,0.398c-0.691-0.064-1.677-0.063-2.762,0.007    c-0.625,0.032-1.285-0.062-1.977,0.005c-0.131,0-0.276,0.411-0.395,0.396c-0.738-0.081-1.742-0.16-2.761,0.007    c-0.658,0.099-1.333,0.084-2.169,0.204c-0.608,0.083-2.403,0.334-2.961-0.191c-0.89-0.854-0.384-1.956-0.009-3.554    c0.048-0.18-0.215-0.148-0.001-0.395c0.1-0.1,0.129-0.428,0.194-0.591c0.1-0.297,0.096-0.857,0.393-1.188    c0.099-0.099,0.131-0.428,0.194-0.591c0.166-0.464,0.346-0.808,0.592-1.384c0.261-0.592,0.817-2.01,1.374-2.963    c1.817-3.115,5.375-7.022,8.661-9.102c0.165-0.098,0.231-0.296,0.393-0.397c0.231-0.133,0.609-0.379,0.988-0.595    c0.229-0.13,0.458-0.196,0.786-0.393c0.231-0.136,0.478-0.217,0.79-0.4c0.23-0.132,0.476-0.215,0.79-0.396    c0.243-0.149,1.231-0.284,1.773-0.598c0.478-0.279,0.561-0.232,1.184-0.398c0.265-0.065,0.89-0.134,1.185-0.397    c0.064-0.066,0.475-0.183,0.59-0.198c0.213-0.051,0.592,0.031,0.789-0.002c0.328-0.066,0.475-0.347,0.787-0.395    c0.201-0.035,0.578,0.014,0.793-0.003c0.902-0.021,2.438,0.816,1.387,2.562c0.049,0.575,0.232,1.216,0.201,1.775    c-0.014,0.118-0.41,0.28-0.395,0.396c0.07,0.658,0.105,1.448,0.008,2.369c-0.062,0.625-0.309,1.4-0.393,2.37    c-0.027,0.297,0.25,0.708,0.203,0.985c-0.062,0.33-0.361,0.496-0.391,0.792c-0.035,0.294,0.23,0.691,0.195,0.987    c-0.029,0.264-0.375,0.511-0.391,0.789c-0.111,1.071,0.219,2.286-0.191,3.355c0.232,0.331-0.523,0.662-0.191,0.99    C51.916,34.3,50.079,36.147,48.241,37.994z M15.406,88.411c-0.493,0.297-0.904,0.413-1.777,0.201    c-0.608-0.145-1.122-0.359-1.383-0.589c-0.857-0.787-1.042-2.051-0.796-3.155c0.064-0.297,1.031-1.797,1.97-1.98    c0.36-0.066,0.589-0.1,1.18-0.002c0.116,0.015,0.71-0.051,0.792-0.004c0.231,0.133,0.38,0.444,0.595,0.594    c0.03,0.031,0.21-0.182,0.394-0.001c0.626,0.655,0.975,1.788,0.992,2.169C17.389,86.482,16.489,87.752,15.406,88.411z     M59.713,46.649c-0.115,0.017-0.674,0.415-0.791,0.397c-0.656-0.063-2.203,0.005-3.158-0.387    c-0.098-0.031-0.297-0.395-0.395-0.394c-0.906,0.084-2.047-1.772-2.375-2.758c-0.115-0.31,0.047-0.543-0.006-0.788    c-0.066-0.33-0.395-0.495-0.396-0.79c0.016-0.313,0.361-0.461,0.393-0.791c0.033-0.164-0.211-0.442-0.195-0.591    c0.014-0.115,0.41-0.279,0.395-0.394c-0.055-0.412,0.588-0.593,0.586-0.989c-0.002-0.592,0.82-1.251,1.574-1.584    c0.1-0.033,0.297-0.394,0.396-0.396c0.213,0.016,1.117,0.029,1.381-0.202c0.475-0.444,2.023,0.045,2.961,0.585    c0.051,0.017,0.215-0.147,0.396-0.001c0.824,0.624,1.73,1.658,2.178,2.562c0.049,0.083-0.18,0.181,0,0.394    c0.23,0.261-0.082,0.577,0.002,0.79c0.051,0.114,0.395,0.263,0.395,0.394c0.018,0.313-0.344,0.446-0.393,0.791    c-0.016,0.148,0.232,0.46,0.203,0.593c-0.018,0.114-0.412,0.279-0.396,0.395c0,0.033,0.197,0.163,0.197,0.196    c-0.031,0.101-0.393,0.298-0.393,0.398c0,0.031,0.213,0.181,0.197,0.197C62.094,44.918,60.369,46.518,59.713,46.649z     M73.705,38.522c-0.643-0.049-1.348,0.069-1.973,0.006c-1.35-0.13-2.717-0.176-4.146-0.584c-1.34-1.952-4.65-3.771-5.74-5.71    c-0.414-0.738-0.416-1.493-0.203-2.169c-0.443-0.542-0.348-1.299-0.4-1.972c-0.016-0.115,0.23-0.529,0.197-0.593    c-0.15-0.379-0.348-0.608-0.4-1.185c-0.1-1.152,0.08-2.418-0.006-3.553c-0.018-0.213-0.15-0.345-0.199-0.592    c-0.15-0.673-0.139-1.974-0.205-2.959c-0.086-1.168-0.451-2.417-0.01-3.553c0.771-0.974,1.939-0.399,2.959-0.205    c0.215,0.048,0.609-0.052,0.793-0.002c0.113,0.018,0.279,0.411,0.396,0.393c0.096,0,0.508-0.214,0.586-0.198    c0.416,0.112,0.564,0.459,0.992,0.59c0.148,0.047,0.166-0.197,0.395-0.002c0.098,0.098,0.428,0.13,0.594,0.197    c1.219,0.458,3.145,1.291,4.543,2.16c1.318,0.818,2.422,1.852,3.758,2.951c0.363,0.293,0.693,0.194,0.988,0.589    c1.615,2.133,3.662,4.167,4.953,6.503c0.213,0.377,0.545,1.032,0.795,1.574c0.082,0.213,0.545,0.938,0.791,1.578    c0.051,0.148-0.197,0.165,0,0.394c0.15,0.181,0.299,0.757,0.396,1.185c0.02,0.113,0.004,0.362,0.002,0.395    c0.133,0.393,0.48,0.573,0.598,0.985c0.033,0.165-0.215,0.148,0.002,0.396c0.229,0.261-0.051,0.544,0.002,0.791    c0.014,0.113,0.408,0.277,0.393,0.393c-0.016,0.146-0.213,0.445-0.195,0.591c0.016,0.116,0.412,0.28,0.395,0.396    c-0.031,0.36,0.088,1.002-0.389,1.581c-0.723,0.856-1.053,0.592-2.168,0.595c-0.629,0.001-1.514-0.127-2.174-0.191    c-1.201-0.112-1.959-0.275-3.16-0.385c-0.115-0.017-0.523,0.229-0.59,0.197c-0.131-0.065-0.25-0.379-0.396-0.394    c-0.396-0.032-0.791,0.036-1.184,0.004c-0.1-0.001-0.527,0.231-0.592,0.199C73.951,38.866,73.838,38.522,73.705,38.522z     M81.215,42.449c-0.395,0.397-0.789,0.792-1.18,1.188c-0.461-0.063-0.922-0.259-1.383-0.193c-0.627-0.521-0.168-1.05-0.793-1.577    c0.295-0.264,0.59-0.528,0.391-0.79C79.285,39.807,81.344,41.003,81.215,42.449z M56.6,64.816    c-0.578-0.671-0.084-0.607-0.398-1.577c1.67-2.143,3.402-0.42,3.16,0.782c-0.051,0.183-0.297,0.689-0.395,0.79    C58.475,65.339,57.324,65.671,56.6,64.816z M73.377,64.182c-0.184,0.115-0.592,0.793-0.791,0.793c-0.033,0-0.18-0.216-0.197-0.198    c-0.182,0.116-0.59,0.791-0.787,0.791c-0.031,0-0.182-0.213-0.197-0.197c-0.18,0.117-0.588,0.792-0.789,0.793    c-0.164,0-0.689,0.168-1.182,0.399c-0.51,0.246-1.414,0.561-1.971,0.791c-0.264,0.101-0.607,0.48-0.986,0.598    c-0.135,0.03-0.494-0.229-0.594-0.198c-0.574,0.219-0.771,0.448-1.377,0.598c-1.4,0.35-2.848,0.745-3.754,0.205    c-0.461-0.522-0.611-1.396-0.598-2.167c0-0.132,0.414-0.281,0.396-0.396c-0.035-0.429-0.25-1.135-0.201-1.778    c0.014-0.115,0.41-0.279,0.391-0.395c-0.035-0.427-0.248-1.133-0.201-1.774c0.016-0.117,0.412-0.281,0.395-0.396    c-0.168-1.614,0.186-3.852,0.379-5.924c0.066-0.724,0.113-1.462,0.191-2.171c0.08-0.742,0.129-1.514,0.391-1.975    c0.51-0.875,1.822-1.832,2.76-2.771c0.834-0.841,1.67-2.012,2.557-2.571c0.295-0.202,0.641-0.514,0.984-0.598    c0.297-0.066,0.693,0.23,0.986,0.197c0.611-0.085,1.281-0.334,1.975-0.399c0.658-0.067,1.281,0.06,1.975-0.005    c0.344-0.019,0.623-0.169,0.988-0.202c0.113-0.018,0.51,0.213,0.592,0.197c0.129-0.065,0.26-0.396,0.393-0.395    c0.639-0.052,1.314,0.028,1.973-0.007c0.645-0.052,1.348,0.031,1.975-0.005c0.674-0.051,1.332-0.347,1.973-0.4    c0.312-0.016,0.674,0.213,0.986,0.194c0.33-0.031,0.658-0.396,0.988-0.199c0.492-0.263,1.711,0.49,1.779,1.376    c0.016,0.216-0.146,0.381-0.195,0.594c-0.082,0.348-0.129,0.625-0.195,0.989c-0.082,0.345-0.113,0.61-0.191,0.986    c-0.084,0.378-0.197,0.626-0.199,0.987c0,0.263-0.555,1.45-0.783,1.977c-0.115,0.246-0.18,0.707-0.393,1.187    c-1.111,2.564-2.814,5.403-4.719,7.51C76.723,61.74,74.936,63.143,73.377,64.182z"/><path d="M74.736,56.481c1.053-0.759,2.107,0.324,3.156-0.798c-0.773-0.871-1.006-1.723-0.6-2.564    c0.918-1.253,1.828-0.086,2.764-1.191c-0.73-1.05-1.586-2.102-0.801-3.156c0.758-0.661,2.223-0.219,2.369-1.19    c-0.396-0.394-0.795-0.789-1.191-1.182c-1.312,0.3-2.629,0.238-3.943,0.405c0,0.889-0.506,1.894-0.982,2.965    c-0.621,1.414-1.373,2.732-2.357,3.953c-0.33,0.395-0.275,0.609-0.59,0.986c-0.98,1.155-2.328,2.145-2.953,2.573    c-0.215,0.151-0.377,0.413-0.592,0.596c-0.18,0.146-0.361-0.032-0.395,0.002c-0.771,0.51-1.018,0.823-1.377,0.989    c-0.578,0.247-1.133,0.578-1.578,0.793c-0.543,0.281-1.133,0.546-1.381,0.595c-0.592,0.135-1.102,0.547-1.578,0.4    c-0.854,0.858,0.268,1.71-0.586,2.567c0.562,0.92-0.588,1.845,0.402,2.763c1.25-0.234,0.309-1.895,1.965-2.769    c0.857-0.067,1.715,1.146,2.572,1.373c0.986-0.921-0.137-1.839,1.18-2.766c1.096-0.874,2.156,1.163,3.156,0.386    c-0.037-0.92-0.4-1.838,0.387-2.763c0.92-0.527,1.842-0.201,2.764,0.387C75.367,58.717,73.85,57.603,74.736,56.481z"/><path d="M71.172,51.754c0.062-0.923-1.287-1.839-0.402-2.763c0.803-1.468,2.385-0.286,2.562-1.388    c0.1-0.198,0.064-0.396-0.195-0.593c-1.58,0.236-3.158,0.307-4.74,0.408c-1.686,2.06-3.064,3.442-5.119,5.145    c-0.209,1.333-0.174,2.648-0.186,3.751c-0.002,0.327-0.641,1.169,0.199,1.38c1.18-0.923,0.408-1.825,1.18-2.767    c0.195,0.1,0.393,0.065,0.59-0.199c0.92-0.594,2.076,1.146,2.764,0.387c0.361-0.92-0.795-1.836,0.389-2.764    C69.197,51.197,70.188,52.645,71.172,51.754z"/><path d="M49.098,64.836c1.185,0.261,2.183-2.126,3.156-1.192c0.264,0.264,0.527,0.526,0.789,0.787    c-0.197,0.198,0.1,0.593,0.398,0.394c-0.531-1.379-0.008-2.761-0.602-4.142c-0.727,0.037-1.447,1.154-2.167,1.781    C50.081,63.255,48.503,64.048,49.098,64.836z"/><path d="M79.82,37.519c-0.527-0.985,0.176-1.991,1.375-2.962c-0.924-0.955-1.844-0.522-2.766-1.178    c-0.135-0.986-0.334-1.975,0.98-2.965c-1.057-1.182-2.107,0.171-3.162-1.173c-0.35-0.477,0.129-0.923-0.201-1.383    c0.492-0.528,0.984-1.055,0.391-1.578c-0.988,0.065-1.973,0.298-2.963-0.191c-0.033-0.857-0.529-1.713,0.189-2.568    c-0.195-0.195-0.393-0.393-0.592-0.588c-0.92,0.459-1.836,1.122-2.764,0.402c-1.053-0.987,0.162-1.978-0.99-2.963    c-0.92,0.828-1.842,1.554-2.764,0.798c-1.385-0.85-0.004-1.71-1.389-2.561c-0.457,0.463-0.918,0.922-1.377,1.386    c-0.266-0.263-0.527,0.165-0.791,0.002c-0.26,0.262-0.525-0.165-0.789,0c0.529,1.118-0.061,2.238,0.604,3.354    c0.508-0.082,1.1,0.212,1.574,0.393c0.498,0.162,0.941,0.245,1.189,0.39c0.312,0.179,0.561,0.263,0.789,0.393    c0.314,0.182,0.561,0.262,0.793,0.395c0.314,0.179,0.559,0.26,0.793,0.393c1.018,0.624,2.354,1.787,2.963,2.164    c0.971,0.606,1.137,1.429,1.582,1.97c0.398,0.492,0.908,0.771,1.186,1.182c0.729,1.019,1.293,2.299,1.787,3.349    c0.562,1.218,0.846,2.418,1.391,3.351C77.848,37.426,78.832,37.423,79.82,37.519z"/><path d="M72.51,34.181c-1.057-1.181-2.107,0.172-3.16-1.176c-0.695-1.051,0.816-2.107-0.008-3.157    c-0.988,0.564-1.973,0.958-2.963,0.205c-1.053-0.984,0.162-1.973-0.994-2.959c-0.457,0.792-1.133,0.776-1.379,0.991    c-0.246,0.217-0.217-0.048-0.395,0.001c-0.756,0.168-0.426,0.297-0.393,0.792c0.037,0.657-0.029,1.085,0.006,1.578    c0.029,0.23-0.051,0.542,0,0.788c2.211,1.903,3.332,3.153,5.342,5.316c0.988,0.099,1.975,0.094,2.961,0.19    C71.264,35.896,71.854,35.039,72.51,34.181z"/><path d="M37.21,46.708c-0.312-0.051-0.514-0.378-0.789-0.395c-0.167-0.034-0.431,0.198-0.595,0.199    c-0.659-0.031-2.007-0.817-1.973,0.007c0.789-0.004,1.58,0.225,2.374,1.178c-0.181,0.245-0.1,0.526-0.001,0.79    c-0.392,0.789-1.575,1.583-1.179,2.372c1.744-0.007,2.332-2.541,4.136-3.763C38.755,46.208,37.503,46.74,37.21,46.708z"/><path d="M52.172,31.67c0.49-1.517,0.254-3.029,0.582-4.542c-0.232-0.264-0.035-0.526-0.396-0.792    c-1.432,0.253-0.373,1.893-1.573,2.769c-0.987,0.396-1.976-0.16-2.962-0.585c-0.721,1.121,0.562,2.236-0.586,3.357    c-0.984,0.694-1.975-0.256-2.958,0.205c0.201,1.053,1.322,2.104,0.401,3.157c-0.818,1.286-2.386-0.011-2.562,1.388    c0.791,0.622,1.875,0.062,2.764-0.007c0.922-0.067,1.907,0.158,2.762-0.399c0.49-0.332,0.572-0.875,0.982-1.385    C49.563,33.665,50.875,32.672,52.172,31.67z"/><path d="M53.137,23.179c0.129-1.186,0.029-2.368,0.387-3.556c-0.596-0.558-1.188-1.411-1.779-1.377    c-0.559,0.921-0.195,1.845-1.573,2.766c-0.854,0.07-1.712-1.146-2.568-1.375c-0.789,0.99,0.268,1.974-0.979,2.965    c-0.266-0.264-0.527,0.165-0.792,0c-0.789,0.396-1.58-1.243-2.368-0.389c-0.129,0.922,0.629,1.841-0.39,2.765    c-0.981,1.12-1.975-0.785-2.958,0.204c-0.13,0.923,1.023,1.84,0.007,2.765c-0.984,1.286-1.975-0.291-2.958,0.995    c0.957,0.984,1.123,1.971,0.599,2.959c-0.804,0.677-2.368,0.072-2.563,0.993c0.92,0.985,1.517,1.972,0.993,2.96    c-0.786,0.726-1.578,0.233-2.362,1.187c0.856,0.952,1.709,0.424,2.566,0.194c0.902,0.143,1.841,0.29,2.76-0.405    c0.538-2.025,1.534-4.673,3.341-6.916C45.431,26.306,49.867,23.726,53.137,23.179z"/></g></g><text x="0" y="115" fill="#000000" font-size="5px" font-weight="bold" font-family="'Helvetica Neue', Helvetica, Arial-Unicode, Arial, Sans-serif">Created by Humberto Pornaro</text><text x="0" y="120" fill="#000000" font-size="5px" font-weight="bold" font-family="'Helvetica Neue', Helvetica, Arial-Unicode, Arial, Sans-serif">from the Noun Project</text></svg>